PathFileType	4	(X/Y/Z)	/Users/itak/Documents/Research/Walk-IL/dataset/trc/00368_00011.trc
DataRate	CameraRate	NumFrames	NumMarkers	Units	OrigDataRate	OrigDataStartFrame	OrigNumFrames
100.000000	100.000000	4	61	mm	100.000000	348	557
Frame#	Time	LPSI			L3			STRN			T10			C7			CLAV			RBAK			LBAK			LSHO			LUPA			LAEL			LAOL			LWTS			LWPS			LFRA			LHPS			LHTS			RSHO			RUPA			RAEL			RAOL			RWTS			RWPS			RFRA			RIFD			RHTS			RBHD			LFHD			RFHD			LBHD			LHIP			RHIP			RASI			LASI			LKNE			LANK			LTIP			LTOE			LMT1			LMT5			LHEE			RKNE			RTHI			RANK			RTIP			RTOE			RMT1			RMT5			RHEE			RPSI			RHPS			LTHI			LIFD			*53			*54			*55			*56			*57			*58			*59			*60			
		X1	Y1	Z1	X2	Y2	Z2	X3	Y3	Z3	X4	Y4	Z4	X5	Y5	Z5	X6	Y6	Z6	X7	Y7	Z7	X8	Y8	Z8	X9	Y9	Z9	X10	Y10	Z10	X11	Y11	Z11	X12	Y12	Z12	X13	Y13	Z13	X14	Y14	Z14	X15	Y15	Z15	X16	Y16	Z16	X17	Y17	Z17	X18	Y18	Z18	X19	Y19	Z19	X20	Y20	Z20	X21	Y21	Z21	X22	Y22	Z22	X23	Y23	Z23	X24	Y24	Z24	X25	Y25	Z25	X26	Y26	Z26	X27	Y27	Z27	X28	Y28	Z28	X29	Y29	Z29	X30	Y30	Z30	X31	Y31	Z31	X32	Y32	Z32	X33	Y33	Z33	X34	Y34	Z34	X35	Y35	Z35	X36	Y36	Z36	X37	Y37	Z37	X38	Y38	Z38	X39	Y39	Z39	X40	Y40	Z40	X41	Y41	Z41	X42	Y42	Z42	X43	Y43	Z43	X44	Y44	Z44	X45	Y45	Z45	X46	Y46	Z46	X47	Y47	Z47	X48	Y48	Z48	X49	Y49	Z49	X50	Y50	Z50	X51	Y51	Z51	X52	Y52	Z52	X53	Y53	Z53	X54	Y54	Z54	X55	Y55	Z55	X56	Y56	Z56	X57	Y57	Z57	X58	Y58	Z58	X59	Y59	Z59	X60	Y60	Z60	X61	Y61	Z61	

349	3.48	-151.5305023193359	947.5466918945312	130.8639221191406	-204.2173309326172	1004.262878417969	156.0177001953125	-100.4888687133789	1181.474731445312	372.3346557617188	-190.2203674316406	1123.819213867188	144.9783477783203	-154.11279296875	1368.985229492188	187.5225982666016	-112.3432464599609	1308.4853515625	334.8982543945312	-230.5437469482422	1230.089721679688	158.0736999511719	-61.45597457885742	1332.900268554688	142.1308288574219	16.46905517578125	1349.361328125	206.6961517333984	84.70785522460938	1233.743896484375	173.515380859375	145.0885620117188	1041.554077148438	212.5139770507812	76.52102661132812	1004.957763671875	179.5138702392578	183.9329528808594	861.3875122070312	395.10595703125	222.0613861083984	833.1908569335938	344.6985778808594	177.4410552978516	948.8300170898438	252.9278411865234	226.6927337646484	769.2192993164062	371.8455810546875	215.6317749023438	794.5941162109375	429.8624267578125	-292.9202270507812	1353.416625976562	287.6932983398438	-359.4236450195312	1294.447021484375	285.2019348144531	-415.4033203125	1039.790893554688	231.5216064453125	-327.58203125	1029.568481445312	197.7754211425781	-415.6422729492188	789.0553588867188	283.9631042480469	-480.4085083007812	795.856201171875	243.3299255371094	-438.0004577636719	972.8546142578125	239.7201843261719	-454.7837829589844	622.9169921875	239.9515228271484	-448.0281982421875	683.3955688476562	275.6922302246094	-215.5291290283203	1574.03271484375	281.5687255859375	-52.62088394165039	1566.0185546875	409.5557556152344	-151.1631927490234	1563.758422851562	430.2215576171875	-82.33778381347656	1576.40234375	225.7254943847656	-14.02012729644775	896.6375732421875	146.2373504638672	-309.4287414550781	876.75537109375	319.6982727050781	-220.2617340087891	910.6273193359375	386.2985229492188	-4.766984462738037	915.191162109375	282.7662658691406	-47.18807220458984	445.1753234863281	123.4173965454102	-184.1097412109375	58.45412445068359	-36.34075927734375	-103.0775604248047	242.0550079345703	36.75874710083008	-80.20393371582031	37.81942367553711	148.8018341064453	-159.8411865234375	28.38782691955566	130.2778930664062	-88.51361846923828	40.31616592407227	40.90473175048828	-255.8078002929688	57.69002532958984	-11.62727642059326	-181.2357940673828	442.354736328125	468.5399780273438	-254.2843933105469	689.8003540039062	426.4716491699219	-88.93588256835938	49.96136474609375	563.00732421875	-152.7342224121094	343.0574645996094	512.7581787109375	-17.23844146728516	124.0144119262695	731.5963745117188	18.55102348327637	100.6439590454102	677.6651611328125	-94.85916137695312	71.17977905273438	664.2433471679688	-49.21323013305664	39.73657989501953	506.7285461425781	-263.7264709472656	932.11328125	193.2745361328125	-489.5623474121094	711.5013427734375	229.2612609863281	-22.7208137512207	580.5231323242188	144.5926055908203	210.1933135986328	714.9801025390625	466.0319519042969	nan	nan	nan	nan	nan	nan	nan	nan	nan	nan	nan	nan	nan	nan	nan	nan	nan	nan	nan	nan	nan	nan	nan	nan	
350	3.49	-147.2545623779297	946.546630859375	138.9653472900391	-199.9228820800781	1002.90576171875	163.7898712158203	-97.10130310058594	1180.48779296875	380.1077270507812	-186.1148834228516	1122.377563476562	152.5998992919922	-150.5260162353516	1367.800537109375	194.8558349609375	-109.0355606079102	1307.416625976562	342.5461120605469	-226.6774444580078	1228.726684570312	165.3742828369141	-57.71551132202148	1331.730712890625	149.7354583740234	20.09743499755859	1348.109985351562	214.5159454345703	88.09087371826172	1232.241943359375	181.4858703613281	147.7135925292969	1039.817993164062	220.3616333007812	79.16107177734375	1003.503173828125	186.9721984863281	184.7090759277344	859.8965454101562	403.4414367675781	223.1885223388672	831.46826171875	353.3886413574219	179.5943908691406	947.1356811523438	260.9059143066406	227.2517242431641	767.4749145507812	380.7065124511719	215.8393402099609	793.0849609375	438.6240844726562	-289.6414794921875	1352.099975585938	294.7142944335938	-355.9571533203125	1292.779663085938	292.2162780761719	-410.7693176269531	1037.526733398438	239.6885070800781	-323.0166931152344	1027.759155273438	205.63427734375	-409.5974731445312	786.7182006835938	293.1103820800781	-474.2607116699219	793.2561645507812	252.3963775634766	-432.9504089355469	970.4978637695312	248.1310424804688	-447.1190795898438	620.4910278320312	248.5621643066406	-440.6492004394531	680.3819580078125	283.355224609375	-212.2944030761719	1573.0205078125	288.0914916992188	-49.8194694519043	1565.461303710938	416.6664733886719	-148.4290008544922	1563.207275390625	436.9800415039062	-78.93679809570312	1575.29248046875	232.6689300537109	-9.905971527099609	895.4649047851562	154.3984375	-305.4009704589844	876.0580444335938	327.4844360351562	-216.3018798828125	909.71630859375	394.24853515625	-0.6679428815841675	913.5515747070312	290.5853576660156	-44.31485748291016	444.7862854003906	128.7313537597656	-183.2485198974609	60.7545166015625	-36.04159927368164	-101.3422164916992	242.8981475830078	39.63917922973633	-80.12643432617188	37.71798324584961	148.902099609375	-159.6548004150391	28.45461654663086	130.3712615966797	-88.12831115722656	40.76138305664062	41.20038223266602	-255.1119995117188	60.3994026184082	-11.6100492477417	-177.5179595947266	442.5149536132812	478.6132202148438	-249.9680938720703	690.395263671875	435.9144592285156	-88.35208892822266	48.5311393737793	566.5226440429688	-149.4623413085938	341.9937744140625	521.4331665039062	-16.70215606689453	118.8679733276367	736.5281372070312	19.09955024719238	95.95773315429688	682.4930419921875	-94.62230682373047	67.99217224121094	668.0437622070312	-48.18995666503906	38.88476181030273	510.5673828125	-259.6351013183594	931.1180419921875	200.9915924072266	-482.8639831542969	708.8118896484375	238.2334289550781	-19.46335411071777	579.6453247070312	150.9006805419922	209.7736511230469	713.62890625	475.0042114257812	nan	nan	nan	nan	nan	nan	nan	nan	nan	nan	nan	nan	nan	nan	nan	nan	nan	nan	nan	nan	nan	nan	nan	nan	
351	3.5	-142.9792327880859	945.7379760742188	147.3148193359375	-195.6297302246094	1001.727783203125	171.7585601806641	-93.76341247558594	1179.720947265625	388.0680541992188	-182.0227508544922	1121.12451171875	160.3816223144531	-147.0128173828125	1366.802856445312	202.3296661376953	-105.806770324707	1306.568115234375	350.3511657714844	-222.8712005615234	1227.536987304688	172.8466491699219	-54.04445266723633	1330.76708984375	157.4916687011719	23.65561103820801	1347.077026367188	222.4945678710938	91.39759063720703	1230.95556640625	189.5942535400391	150.1833343505859	1038.255249023438	228.2331390380859	81.57400512695312	1002.297973632812	194.44140625	185.328125	858.33349609375	411.5523376464844	224.1518859863281	829.75146484375	361.8131103515625	181.5809631347656	945.5752563476562	268.8216247558594	227.6540222167969	765.6820068359375	389.2031555175781	215.8948669433594	791.4472045898438	447.0594177246094	-286.4268798828125	1350.97412109375	301.8743591308594	-352.55517578125	1291.29736328125	299.3938598632812	-406.2091979980469	1035.421508789062	248.2399139404297	-318.5700073242188	1026.093017578125	213.8029174804688	-403.3826904296875	784.5946044921875	302.7251586914062	-468.0784912109375	790.8150634765625	262.1540832519531	-427.9278564453125	968.2947387695312	257.0137939453125	-439.4774169921875	618.2427978515625	258.062255859375	-433.2366027832031	677.6162719726562	291.8507690429688	-209.1316986083984	1572.202514648438	294.7467651367188	-47.07474136352539	1565.107543945312	423.9020385742188	-145.7578735351562	1562.864135742188	443.8661193847656	-75.62538909912109	1574.3681640625	239.7299652099609	-5.832371711730957	894.3890380859375	162.8354949951172	-301.4364624023438	875.7869873046875	335.5614624023438	-212.3631286621094	909.1593017578125	402.4102172851562	3.475893974304199	912.0491943359375	298.7223205566406	-41.40547943115234	444.5001831054688	134.6362762451172	-182.3330688476562	63.44169616699219	-35.60249710083008	-99.52469635009766	243.9805908203125	42.83439636230469	-80.05332183837891	37.63516998291016	149.0178985595703	-159.4416046142578	28.53777503967285	130.5119323730469	-87.66999816894531	41.32619094848633	41.56057357788086	-254.3459014892578	63.52676391601562	-11.42152309417725	-173.9321746826172	442.8500671386719	488.6644287109375	-245.7433319091797	691.3519897460938	445.666748046875	-87.99713134765625	47.08178329467773	568.8751220703125	-146.1998901367188	340.9017944335938	529.9047241210938	-16.23160934448242	112.9739608764648	740.4402465820312	19.54953002929688	90.56851196289062	686.241455078125	-94.48300170898438	64.36794281005859	670.7430419921875	-47.37540054321289	38.13327789306641	513.256591796875	-255.5495758056641	930.4397583007812	208.9715576171875	-476.1914367675781	706.2978515625	248.0243225097656	-16.07475852966309	578.8549194335938	157.7092590332031	209.2079467773438	712.0965576171875	483.5055541992188	nan	nan	nan	nan	nan	nan	nan	nan	nan	nan	nan	nan	nan	nan	nan	nan	nan	nan	nan	nan	nan	nan	nan	nan	
352	3.51	-138.7077178955078	945.1318969726562	155.9218292236328	-191.3408660888672	1000.750610351562	179.9614868164062	-90.46730041503906	1179.203125	396.2042846679688	-177.9504547119141	1120.0830078125	168.3295288085938	-143.5738525390625	1366.01123046875	209.93408203125	-102.6492538452148	1305.9716796875	358.2976379394531	-219.1311187744141	1226.537231445312	180.4858703613281	-50.44486999511719	1330.028564453125	165.3840179443359	27.14594650268555	1346.287841796875	230.6103210449219	94.62954711914062	1229.910766601562	197.8207397460938	152.4966888427734	1036.89208984375	236.1193084716797	83.75204467773438	1001.368591308594	201.9204559326172	185.8130187988281	856.7227783203125	419.427978515625	224.9681091308594	828.0640869140625	369.9577331542969	183.4044952392578	944.1736450195312	276.6654052734375	227.9203948974609	763.8671264648438	397.3191528320312	215.8182678222656	789.69970703125	455.1497802734375	-283.271484375	1350.058715820312	309.1700439453125	-349.2115173339844	1290.023193359375	306.7365112304688	-401.7194519042969	1033.506958007812	257.1546630859375	-314.2319030761719	1024.59423828125	222.2770538330078	-397.0150756835938	782.7261352539062	312.7942199707031	-461.8672485351562	788.5681762695312	272.5748291015625	-422.926025390625	966.2764892578125	266.3475036621094	-431.8647155761719	616.2044067382812	268.4646301269531	-425.8120422363281	675.2027587890625	301.2733764648438	-206.0390472412109	1571.6044921875	301.5346069335938	-44.38495635986328	1564.968627929688	431.2620544433594	-143.1471862792969	1562.740966796875	450.8805847167969	-72.39540100097656	1573.658081054688	246.9116821289062	-1.785924196243286	893.4293823242188	171.5637817382812	-297.5434875488281	875.9550170898438	343.9574890136719	-208.4446105957031	908.969970703125	410.7850341796875	7.67389965057373	910.7332153320312	307.2323913574219	-38.43394088745117	444.3273315429688	141.2094421386719	-181.3592834472656	66.56362152099609	-34.97294998168945	-97.60810089111328	245.3381195068359	46.39639663696289	-79.98894500732422	37.57942962646484	149.1450805664062	-159.2027435302734	28.64251518249512	130.7086791992188	-87.12518310546875	42.02524185180664	41.99810028076172	-253.4936676025391	67.1302490234375	-10.99609470367432	-170.5073089599609	443.2962036132812	498.5082092285156	-241.6648101806641	692.5471801757812	455.5999755859375	-87.74051666259766	45.75886535644531	570.4028930664062	-142.9737548828125	339.8413391113281	538.10205078125	-15.70463180541992	106.667724609375	743.5929565429688	20.01513862609863	84.78948974609375	689.1630859375	-94.28828430175781	60.56849670410156	672.6517333984375	-46.65724945068359	37.57533264160156	515.1246337890625	-251.4716644287109	930.0994262695312	217.2411193847656	-469.5360412597656	703.988037109375	258.623046875	-12.53231334686279	578.1770629882812	165.0672454833984	208.5123138427734	710.40087890625	491.5091552734375	nan	nan	nan	nan	nan	nan	nan	nan	nan	nan	nan	nan	nan	nan	nan	nan	nan	nan	nan	nan	nan	nan	nan	nan	
